# xmcd CD database file
#
# Track frame offsets:
#	150
#	13837
#	35083
#	51860
#	70009
#	87911
#	111225
#	127476
#	143943
#	164680
#	179862
#	193804
#	214238
#	230959
#	245465
#	261333
#	274602
#	294137
#	310155
#	326824
#
# Disc length: 4509 seconds
#
# Revision: 0
# Processed by: cddbd v1.5.1PL0 Copyright (c) Steve Scherf et al.
# Submitted via: Feurio! 1.68 - http://www.feurio.com
#
DISCID=4a119b14
DTITLE=Various Artist - Meggy´s Country Mix 1
DYEAR=1900
DGENRE=
TTITLE0=Dean Anderson - Swinging
TTITLE1=Clarence Cater - Strokin
TTITLE2=Smokie - Ros-A-Lee
TTITLE3=Alan Jackson - Chattahoochee
TTITLE4=Tractors - Baby likes to rock it
TTITLE5=Mr. C. - Caspar
TTITLE6=Mavericks - Down on the Corner
TTITLE7=Lacy J. Dalton - Black Coffee
TTITLE8=Commitments - Law down Sally
TTITLE9=Brooks and Dunn - Boots Scootin Boogie
TTITLE10=Australien Tornados - Ghosttrain
TTITLE11=Mavericks - Amazed
TTITLE12=Little Texas - Kick a Little
TTITLE13=Bell. Brothers - Reggae Cowboy
TTITLE14=Brooks and Dunn - Just Hooked on Country
TTITLE15=Charlie Pride - Kaw Liga
TTITLE16=Rick Tippe - Watermelon Crawl
TTITLE17=Bell. Brothers - Rip of the Knob
TTITLE18=Honky Tonk Heroes - Seminole Winde
TTITLE19=Isaac Payton Sweet - Cotton Eyed Joe
EXTD=
EXTT0=
EXTT1=
EXTT2=
EXTT3=
EXTT4=
EXTT5=
EXTT6=
EXTT7=
EXTT8=
EXTT9=
EXTT10=
EXTT11=
EXTT12=
EXTT13=
EXTT14=
EXTT15=
EXTT16=
EXTT17=
EXTT18=
EXTT19=
PLAYORDER=
